<svg width="499" height="79" viewBox="0 0 499 79" fill="none" xmlns="http://www.w3.org/2000/svg">
<path d="M14.8315 36.8667V62.6733C14.8315 63.6511 14.4409 64.5888 13.7455 65.2802C13.0502 65.9716 12.107 66.36 11.1237 66.36H3.70788C2.72449 66.36 1.78138 65.9716 1.08601 65.2802C0.390651 64.5888 0 63.6511 0 62.6733V36.8667C0 35.8889 0.390651 34.9512 1.08601 34.2598C1.78138 33.5684 2.72449 33.18 3.70788 33.18H11.1237C12.107 33.18 13.0502 33.5684 13.7455 34.2598C14.4409 34.9512 14.8315 35.8889 14.8315 36.8667Z" fill="#FF0000"/>
<path d="M37.0788 29.4933V62.6733C37.0788 63.6511 36.6882 64.5888 35.9928 65.2802C35.2975 65.9716 34.3544 66.36 33.371 66.36H25.9552C24.9718 66.36 24.0287 65.9716 23.3333 65.2802C22.638 64.5888 22.2473 63.6511 22.2473 62.6733V29.4933C22.2473 28.5156 22.638 27.5779 23.3333 26.8865C24.0287 26.1951 24.9718 25.8067 25.9552 25.8067H33.371C34.3544 25.8067 35.2975 26.1951 35.9928 26.8865C36.6882 27.5779 37.0788 28.5156 37.0788 29.4933Z" fill="#FF8000"/>
<path d="M59.3262 18.4333V62.6733C59.3262 63.6511 58.9355 64.5888 58.2402 65.2802C57.5448 65.9716 56.6017 66.36 55.6183 66.36H48.2025C47.2191 66.36 46.276 65.9716 45.5806 65.2802C44.8853 64.5888 44.4946 63.6511 44.4946 62.6733V18.4333C44.4946 17.4556 44.8853 16.5178 45.5806 15.8265C46.276 15.1351 47.2191 14.7467 48.2025 14.7467H55.6183C56.6017 14.7467 57.5448 15.1351 58.2402 15.8265C58.9355 16.5178 59.3262 17.4556 59.3262 18.4333Z" fill="#FFF700"/>
<path d="M81.5735 3.68667V62.6733C81.5735 63.6511 81.1828 64.5888 80.4875 65.2802C79.7921 65.9716 78.849 66.36 77.8656 66.36H70.4498C69.4664 66.36 68.5233 65.9716 67.828 65.2802C67.1326 64.5888 66.7419 63.6511 66.7419 62.6733V3.68667C66.7419 2.7089 67.1326 1.77118 67.828 1.0798C68.5233 0.388416 69.4664 0 70.4498 0H77.8656C78.849 0 79.7921 0.388416 80.4875 1.0798C81.1828 1.77118 81.5735 2.7089 81.5735 3.68667Z" fill="#33FF00"/>
<g clip-path="url(#clip0_1_14)">
<path d="M95 22.2349H104.386V49.9855H104.755L123.982 22.2349H132.216V66.36H122.809V38.5879H122.483L103.147 66.36H95V22.2349ZM163.04 46.1503V53.3681H145.616V46.1503H163.04ZM148.657 33.2662V66.36H139.815V33.2662H148.657ZM168.841 33.2662V66.36H160.064V33.2662H168.841ZM172.67 40.4839V33.2662H202.913V40.4839H192.158V66.36H183.338V40.4839H172.67ZM222.536 67.0063C219.104 67.0063 216.149 66.3169 213.672 64.938C211.21 63.5448 209.312 61.5769 207.98 59.0346C206.648 56.4778 205.981 53.4542 205.981 49.9639C205.981 46.5598 206.648 43.5721 207.98 41.001C209.312 38.4299 211.189 36.4262 213.607 34.9898C216.04 33.5535 218.893 32.8352 222.167 32.8352C224.368 32.8352 226.418 33.1872 228.316 33.891C230.228 34.5805 231.893 35.6218 233.312 37.0151C234.746 38.4083 235.861 40.1608 236.658 42.2722C237.455 44.3692 237.853 46.8255 237.853 49.6408V52.1616H209.675V46.4736H229.141C229.141 45.1521 228.851 43.9815 228.272 42.9617C227.692 41.9418 226.889 41.1447 225.86 40.5701C224.846 39.9812 223.666 39.6868 222.319 39.6868C220.914 39.6868 219.668 40.0099 218.582 40.6562C217.51 41.2882 216.671 42.1429 216.062 43.2202C215.454 44.2831 215.142 45.4681 215.128 46.7752V52.1831C215.128 53.8206 215.432 55.2353 216.04 56.4276C216.663 57.6198 217.539 58.539 218.669 59.1853C219.799 59.8318 221.139 60.1549 222.688 60.1549C223.717 60.1549 224.658 60.0112 225.513 59.724C226.368 59.4368 227.099 59.0058 227.707 58.4312C228.316 57.8568 228.779 57.1529 229.098 56.3198L237.658 56.88C237.223 58.9197 236.332 60.7008 234.985 62.2232C233.653 63.7314 231.929 64.9092 229.815 65.7568C227.714 66.5898 225.289 67.0063 222.536 67.0063ZM243.893 78.7702V33.2662H253.018V38.8249H253.431C253.836 37.9343 254.422 37.0295 255.19 36.1102C255.972 35.1766 256.986 34.4009 258.232 33.7832C259.492 33.1512 261.057 32.8352 262.925 32.8352C265.358 32.8352 267.603 33.4672 269.66 34.7312C271.717 35.9809 273.36 37.8698 274.591 40.3978C275.823 42.9113 276.438 46.0642 276.438 49.8562C276.438 53.5477 275.837 56.6646 274.635 59.2069C273.448 61.7349 271.825 63.6525 269.768 64.9596C267.726 66.2523 265.438 66.8987 262.903 66.8987C261.107 66.8987 259.579 66.6042 258.319 66.0152C257.074 65.4263 256.052 64.6867 255.255 63.7961C254.459 62.8912 253.851 61.9791 253.431 61.0598H253.148V78.7702H243.893ZM252.953 49.8131C252.953 51.7809 253.228 53.4973 253.778 54.9625C254.329 56.4276 255.125 57.5695 256.168 58.3882C257.211 59.1926 258.478 59.5948 259.97 59.5948C261.477 59.5948 262.751 59.1853 263.794 58.3667C264.836 57.5336 265.626 56.3845 266.162 54.9193C266.713 53.4399 266.987 51.7378 266.987 49.8131C266.987 47.9028 266.72 46.2222 266.184 44.7715C265.648 43.3208 264.858 42.186 263.815 41.3672C262.773 40.5486 261.491 40.1392 259.97 40.1392C258.464 40.1392 257.189 40.5342 256.146 41.3242C255.118 42.1142 254.329 43.2346 253.778 44.6852C253.228 46.136 252.953 47.8452 252.953 49.8131ZM282.782 66.36V22.2349H300.597C303.871 22.2349 306.601 22.7161 308.788 23.6785C310.975 24.6408 312.619 25.9766 313.72 27.6859C314.821 29.3808 315.371 31.3342 315.371 33.5462C315.371 35.2699 315.023 36.7852 314.328 38.0923C313.633 39.3851 312.677 40.448 311.46 41.2811C310.258 42.0998 308.882 42.6816 307.332 43.0262V43.4572C309.027 43.529 310.613 44.003 312.09 44.8792C313.582 45.7553 314.792 46.9835 315.719 48.5635C316.646 50.1291 317.109 51.9963 317.109 54.1652C317.109 56.5066 316.523 58.5965 315.35 60.435C314.191 62.2592 312.474 63.7028 310.2 64.7657C307.926 65.8286 305.124 66.36 301.792 66.36H282.782ZM292.19 58.7329H299.859C302.481 58.7329 304.393 58.2373 305.594 57.2462C306.796 56.2408 307.397 54.905 307.397 53.2388C307.397 52.0179 307.101 50.9407 306.507 50.007C305.913 49.0733 305.066 48.3408 303.965 47.8093C302.879 47.2779 301.582 47.0122 300.076 47.0122H292.19V58.7329ZM292.19 40.6993H299.164C300.453 40.6993 301.597 40.4768 302.596 40.0315C303.61 39.5718 304.407 38.9255 304.986 38.0923C305.58 37.2592 305.877 36.261 305.877 35.0976C305.877 33.5032 305.304 32.2177 304.161 31.2409C303.031 30.2642 301.423 29.7758 299.338 29.7758H292.19V40.6993ZM338.265 67.0063C334.832 67.0063 331.877 66.3169 329.401 64.938C326.938 63.5448 325.041 61.5769 323.708 59.0346C322.376 56.4778 321.71 53.4542 321.71 49.9639C321.71 46.5598 322.376 43.5721 323.708 41.001C325.041 38.4299 326.916 36.4262 329.336 34.9898C331.769 33.5535 334.622 32.8352 337.896 32.8352C340.097 32.8352 342.146 33.1872 344.044 33.891C345.955 34.5805 347.621 35.6218 349.041 37.0151C350.475 38.4083 351.59 40.1608 352.386 42.2722C353.183 44.3692 353.581 46.8255 353.581 49.6408V52.1616H325.403V46.4736H344.87C344.87 45.1521 344.58 43.9815 344 42.9617C343.421 41.9418 342.617 41.1447 341.589 40.5701C340.575 39.9812 339.395 39.6868 338.047 39.6868C336.643 39.6868 335.397 40.0099 334.311 40.6562C333.239 41.2882 332.399 42.1429 331.79 43.2202C331.182 44.2831 330.871 45.4681 330.856 46.7752V52.1831C330.856 53.8206 331.16 55.2353 331.769 56.4276C332.391 57.6198 333.268 58.539 334.398 59.1853C335.527 59.8318 336.867 60.1549 338.417 60.1549C339.445 60.1549 340.387 60.0112 341.241 59.724C342.095 59.4368 342.827 59.0058 343.436 58.4312C344.044 57.8568 344.508 57.1529 344.826 56.3198L353.386 56.88C352.952 58.9197 352.061 60.7008 350.714 62.2232C349.381 63.7314 347.658 64.9092 345.543 65.7568C343.443 66.5898 341.016 67.0063 338.265 67.0063ZM359.621 66.36V33.2662H368.876V46.1072H371.483L380.565 33.2662H391.428L379.631 49.6838L391.558 66.36H380.565L372.331 54.6178H368.876V66.36H359.621ZM393.731 40.4839V33.2662H423.973V40.4839H413.219V66.36H404.398V40.4839H393.731ZM443.467 67.0063C440.092 67.0063 437.174 66.2953 434.711 64.8733C432.263 63.437 430.373 61.4405 429.041 58.8838C427.709 56.3127 427.042 53.3322 427.042 49.9424C427.042 46.5238 427.709 43.5362 429.041 40.9795C430.373 38.4083 432.263 36.4118 434.711 34.9898C437.174 33.5535 440.092 32.8352 443.467 32.8352C446.841 32.8352 449.753 33.5535 452.2 34.9898C454.663 36.4118 456.56 38.4083 457.893 40.9795C459.225 43.5362 459.892 46.5238 459.892 49.9424C459.892 53.3322 459.225 56.3127 457.893 58.8838C456.56 61.4405 454.663 63.437 452.2 64.8733C449.753 66.2953 446.841 67.0063 443.467 67.0063ZM443.51 59.8964C445.046 59.8964 446.327 59.4655 447.356 58.6037C448.384 57.7275 449.159 56.5352 449.681 55.0271C450.217 53.5189 450.484 51.8025 450.484 49.8778C450.484 47.953 450.217 46.2366 449.681 44.7283C449.159 43.2202 448.384 42.028 447.356 41.1518C446.327 40.2757 445.046 39.8376 443.51 39.8376C441.96 39.8376 440.657 40.2757 439.6 41.1518C438.557 42.028 437.768 43.2202 437.232 44.7283C436.71 46.2366 436.449 47.953 436.449 49.8778C436.449 51.8025 436.71 53.5189 437.232 55.0271C437.768 56.5352 438.557 57.7275 439.6 58.6037C440.657 59.4655 441.96 59.8964 443.51 59.8964ZM465.91 78.7702V33.2662H475.035V38.8249H475.448C475.853 37.9343 476.439 37.0295 477.207 36.1102C477.989 35.1766 479.003 34.4009 480.249 33.7832C481.509 33.1512 483.073 32.8352 484.941 32.8352C487.375 32.8352 489.62 33.4672 491.677 34.7312C493.733 35.9809 495.377 37.8698 496.608 40.3978C497.84 42.9113 498.455 46.0642 498.455 49.8562C498.455 53.5477 497.854 56.6646 496.652 59.2069C495.464 61.7349 493.842 63.6525 491.785 64.9596C489.743 66.2523 487.455 66.8987 484.92 66.8987C483.124 66.8987 481.596 66.6042 480.336 66.0152C479.09 65.4263 478.069 64.6867 477.272 63.7961C476.476 62.8912 475.868 61.9791 475.448 61.0598H475.165V78.7702H465.91ZM474.97 49.8131C474.97 51.7809 475.244 53.4973 475.795 54.9625C476.346 56.4276 477.142 57.5695 478.185 58.3882C479.227 59.1926 480.495 59.5948 481.987 59.5948C483.493 59.5948 484.768 59.1853 485.811 58.3667C486.853 57.5336 487.643 56.3845 488.179 54.9193C488.729 53.4399 489.004 51.7378 489.004 49.8131C489.004 47.9028 488.736 46.2222 488.2 44.7715C487.664 43.3208 486.875 42.186 485.832 41.3672C484.79 40.5486 483.507 40.1392 481.987 40.1392C480.48 40.1392 479.206 40.5342 478.163 41.3242C477.134 42.1142 476.346 43.2346 475.795 44.6852C475.244 46.136 474.97 47.8452 474.97 49.8131Z" fill="black"/>
</g>
<defs>
<clipPath id="clip0_1_14">
<rect width="404.043" height="56.88" fill="white" transform="translate(94.9565 22.12)"/>
</clipPath>
</defs>
</svg>
